<?xml version="1.0" encoding="utf-8"?>
<!-- Generator: Adobe Illustrator 18.0.0, SVG Export Plug-In . SVG Version: 6.00 Build 0)  -->
<!DOCTYPE svg PUBLIC "-//W3C//DTD SVG 1.1//EN" "http://www.w3.org/Graphics/SVG/1.1/DTD/svg11.dtd">
<svg version="1.1" id="Icons" xmlns="http://www.w3.org/2000/svg" xmlns:xlink="http://www.w3.org/1999/xlink" x="0px" y="0px"
	 viewBox="0 0 32 32" enable-background="new 0 0 32 32" xml:space="preserve">
<g>
	<path fill="none" stroke="#333333" stroke-width="2" stroke-linecap="round" stroke-linejoin="round" stroke-miterlimit="10" d="
		M13,16c0,1.657-0.672,3.157-1.757,4.243C10.157,21.328,8.657,22,7,22c-1.657,0-3.157-0.672-4.243-1.757C1.672,19.157,1,17.657,1,16
		s0.672-3.157,1.757-4.243C3.843,10.672,5.343,10,7,10c1.657,0,3.157,0.672,4.243,1.757C12.328,12.843,13,14.343,13,16z"/>
	<path fill="none" stroke="#333333" stroke-width="2" stroke-linecap="round" stroke-linejoin="round" stroke-miterlimit="10" d="
		M30,6c0,0.552-0.112,1.078-0.314,1.557c-0.203,0.478-0.495,0.91-0.857,1.271c-0.362,0.362-0.793,0.655-1.271,0.857
		C27.078,9.888,26.552,10,26,10c-0.552,0-1.078-0.112-1.557-0.314c-0.479-0.203-0.91-0.495-1.271-0.857
		c-0.362-0.362-0.655-0.793-0.857-1.271C22.112,7.078,22,6.552,22,6s0.112-1.078,0.314-1.557c0.202-0.478,0.495-0.909,0.857-1.271
		c0.362-0.362,0.793-0.655,1.271-0.857C24.922,2.112,25.448,2,26,2c0.552,0,1.078,0.112,1.557,0.314
		c0.478,0.202,0.909,0.495,1.271,0.857c0.362,0.362,0.655,0.793,0.857,1.271C29.888,4.922,30,5.448,30,6z"/>
	<path fill="none" stroke="#333333" stroke-width="2" stroke-linecap="round" stroke-linejoin="round" stroke-miterlimit="10" d="
		M30,26c0,0.552-0.112,1.078-0.314,1.557c-0.203,0.479-0.495,0.91-0.857,1.271c-0.362,0.362-0.793,0.655-1.271,0.857
		C27.078,29.888,26.552,30,26,30c-0.552,0-1.078-0.112-1.557-0.314c-0.479-0.202-0.91-0.495-1.271-0.857
		c-0.362-0.362-0.655-0.793-0.857-1.271C22.112,27.078,22,26.552,22,26s0.112-1.078,0.314-1.557c0.202-0.479,0.495-0.91,0.857-1.271
		c0.362-0.362,0.793-0.655,1.271-0.857C24.922,22.112,25.448,22,26,22c0.552,0,1.078,0.112,1.557,0.314
		c0.478,0.202,0.909,0.495,1.271,0.857c0.362,0.362,0.655,0.793,0.857,1.271C29.888,24.922,30,25.448,30,26z"/>
	
		<line fill="none" stroke="#333333" stroke-width="2" stroke-linecap="round" stroke-linejoin="round" stroke-miterlimit="10" x1="11.243" y1="11.757" x2="22" y2="6"/>
	
		<line fill="none" stroke="#333333" stroke-width="2" stroke-linecap="round" stroke-linejoin="round" stroke-miterlimit="10" x1="11.243" y1="20.243" x2="22" y2="26"/>
</g>
</svg>
